<svg height="512pt" viewBox="0 0 512 512" width="512pt" xmlns="http://www.w3.org/2000/svg"><path d="m91 225h30v45h-30zm0 0" fill="#450628"/><path d="m151 240h-60c-16.570312 0-30-13.429688-30-30s13.429688-30 30-30h60zm0 0" fill="#ffbfab"/><path d="m421 240h-60v-60h60c16.570312 0 30 13.429688 30 30s-13.429688 30-30 30zm0 0" fill="#ffa78f"/><path d="m0 465v47h91l30-63.875-30-86.609375c-50.75 7.355469-91 50.730469-91 103.484375zm0 0" fill="#ffbfab"/><path d="m512 465c0-52.753906-40.25-96.128906-91-103.484375l-30 88.484375 30 62h91zm0 0" fill="#ffa78f"/><path d="m421 361.5v150.5h-330v-150.5c4.800781-.597656 9.902344-1.5 15-1.5h75l30 15h90l30-15h75c5.097656 0 10.199219.902344 15 1.5zm0 0" fill="#3aaaff"/><path d="m421 361.5v150.5h-165v-137h45l30-15h75c5.097656 0 10.199219.902344 15 1.5zm0 0" fill="#0095ff"/><path d="m331 338.101562v36.898438c0 41.398438-33.601562 75-75 75s-75-33.601562-75-75v-36.898438zm0 0" fill="#ffbfab"/><path d="m256 338.101562h75v36.898438c0 41.398438-33.601562 75-75 75zm0 0" fill="#ffa78f"/><path d="m391 201.898438c0 144.902343-132 185.699218-135 188.101562-3-2.402344-135-41.699219-135-188.101562v-51.898438l31.800781-90 103.199219 14.699219 108.898438 15.300781zm0 0" fill="#ffcebf"/><path d="m391 201.898438c0 144.902343-132 185.699218-135 188.101562v-315.300781l108.898438 15.300781zm0 0" fill="#ffbfab"/><path d="m286 0h-60c-57.597656 0-105 47.101562-105 105v45h45c33.898438 0 64.199219-16.199219 83.101562-41.398438 1.800782 3.898438 4.199219 7.796876 6.898438 11.097657 10.5 14.699219 26.699219 25.199219 45 28.800781v196.5c0 41.398438 33.601562 75 75 75h15v-315c0-57.898438-47.101562-105-105-105zm0 0" fill="#ff9f00"/><path d="m391 105v315h-15c-41.398438 0-75-33.601562-75-75v-196.5c-18.300781-3.601562-34.5-14.101562-45-28.800781v-119.699219h30c57.898438 0 105 47.101562 105 105zm0 0" fill="#ff7816"/></svg>