<svg height="512pt" viewBox="-43 0 512 512" width="512pt" xmlns="http://www.w3.org/2000/svg"><path d="m426.210938 442.1875v69.8125h-426.210938v-69.8125c0-50.40625 43.863281-91.425781 97.785156-91.425781h230.640625c53.921875 0 97.785157 41.019531 97.785157 91.425781zm0 0" fill="#6aa9ff"/><path d="m426.210938 442.1875v69.8125h-213.105469v-161.238281h115.320312c53.921875 0 97.785157 41.019531 97.785157 91.425781zm0 0" fill="#7985ec"/><path d="m325.742188 350.761719v66.96875l-112.636719 61.359375-.570313.3125-108.722656-61.851563v-66.789062zm0 0" fill="#3868a0"/><path d="m325.742188 350.761719v66.96875l-112.636719 61.359375v-128.328125zm0 0" fill="#224270"/><path d="m365.484375 152.367188-28.863281 8.339843c-.019532-.058593-.472656-1.550781-1.445313-4.195312h-244.152343c-.949219 2.5625-1.390626 4.035156-1.421876 4.148437l-14.429687-4.148437-14.441406-4.144531c.300781-1.0625 7.722656-26.378907 29.5625-57.40625 19.960937-28.382813 56.484375-67.488282 117.066406-92.578126l5.746094-2.382812 5.75 2.382812c60.578125 25.089844 97.105469 64.195313 117.0625 92.578126 21.84375 31.027343 29.265625 56.34375 29.566406 57.40625zm0 0" fill="#ebded9"/><path d="m365.484375 152.367188-28.863281 8.339843c-.019532-.058593-.472656-1.550781-1.445313-4.195312h-122.070312v-156.511719l5.75 2.382812c60.578125 25.089844 97.105469 64.195313 117.0625 92.578126 21.84375 31.027343 29.265625 56.34375 29.566406 57.40625zm0 0" fill="#cabbb7"/><path d="m397.71875 208.691406c-14.097656 45.746094-42.050781 75.390625-80.839844 85.714844l-3.863281-14.511719h-199.816406l-3.867188 14.511719c-38.789062-10.324219-66.738281-39.96875-80.839843-85.714844-10.164063-32.960937-9.554688-62.804687-9.523438-64.058594l.539062-21.710937 20.121094 8.164063c76.433594 30.984374 167.628906.046874 168.539063-.273438l4.9375-1.710938 4.949219 1.722657c.898437.308593 92.09375 31.246093 168.527343.261719l20.121094-8.164063.542969 21.710937c.027344 1.253907.640625 31.097657-9.527344 64.058594zm0 0" fill="#fff1f1"/><path d="m397.71875 208.691406c-14.097656 45.746094-42.050781 75.390625-80.839844 85.714844l-3.863281-14.511719h-99.910156v-150.792969l4.949219 1.722657c.898437.308593 92.09375 31.246093 168.527343.261719l20.121094-8.164063.542969 21.710937c.027344 1.253907.640625 31.097657-9.527344 64.058594zm0 0" fill="#ebded9"/><path d="m317.421875 213.664062v66.964844c0 57.519532-46.796875 104.316406-104.316406 104.316406-57.515625 0-104.3125-46.796874-104.3125-104.316406v-66.964844h13.636719c28.273437 0 49.648437-7.882812 63.515624-23.417968 8.6875-9.722656 12.058594-20.007813 13.183594-24.359375h27.90625c.988282 4.207031 4.167969 14.585937 12.863282 24.398437 13.742187 15.515625 35.230468 23.378906 63.882812 23.378906zm0 0" fill="#ffcebf"/><path d="m303.78125 213.664062h13.640625v66.964844c0 57.519532-46.796875 104.316406-104.316406 104.316406v-219.058593h13.929687c.988282 4.207031 4.167969 14.585937 12.863282 24.398437 13.742187 15.515625 35.234374 23.378906 63.882812 23.378906zm0 0" fill="#ffb99c"/><path d="m139.628906 250.710938v-38h-38c-17.117187 0-30.996094 13.878906-30.996094 30.996093v38h12.242188c-7.4375 5.664063-12.242188 14.609375-12.242188 24.679688v37.996093h10.929688c-6.683594 5.6875-10.929688 14.15625-10.929688 23.617188v38h10.929688c-6.683594 5.683594-10.929688 14.152344-10.929688 23.617188v37.996093h38c17.117188 0 30.996094-13.875 30.996094-30.996093v-38h-10.929687c6.6875-5.6875 10.929687-14.152344 10.929687-23.617188v-38h-10.929687c6.6875-5.683594 10.929687-14.152344 10.929687-23.613281v-38h-12.242187c7.4375-5.664063 12.242187-14.609375 12.242187-24.675781zm0 0" fill="#ffa001"/><path d="m286.582031 250.710938v-38h38c17.121094 0 31 13.878906 31 30.996093v38h-12.246093c7.441406 5.664063 12.246093 14.609375 12.246093 24.679688v37.996093h-10.929687c6.683594 5.6875 10.929687 14.15625 10.929687 23.617188v38h-10.929687c6.683594 5.683594 10.929687 14.152344 10.929687 23.617188v37.996093h-38c-17.121093 0-31-13.875-31-30.996093v-38h10.929688c-6.683594-5.6875-10.929688-14.152344-10.929688-23.617188v-38h10.929688c-6.683594-5.683594-10.929688-14.152344-10.929688-23.613281v-38h12.242188c-7.4375-5.664063-12.242188-14.609375-12.242188-24.675781zm0 0" fill="#f77e01"/><path d="m254.664062 311.507812c0 22.910157-18.648437 41.554688-41.558593 41.554688-22.90625 0-41.554688-18.644531-41.554688-41.554688h27.914063c0 7.519532 6.125 13.640626 13.640625 13.640626 7.519531 0 13.640625-6.121094 13.640625-13.640626zm0 0" fill="#c6715a"/><path d="m226.746094 311.507812h27.917968c0 22.910157-18.648437 41.554688-41.558593 41.554688v-27.914062c7.519531 0 13.640625-6.121094 13.640625-13.640626zm0 0" fill="#b35f49"/></svg>