<svg id="Capa_1" enable-background="new 0 0 512 512" height="512" viewBox="0 0 512 512" width="512" xmlns="http://www.w3.org/2000/svg"><path d="m132.333 260.333h-25.667c-37.679 0-68.333-30.654-68.333-68.334s30.654-68.333 68.333-68.333h25.667z" fill="#d3d3d8"/><path d="m405.333 260.333h-25.667v-136.666h25.667c37.679 0 68.333 30.654 68.333 68.333s-30.654 68.333-68.333 68.333z" fill="#babac0"/><path d="m106.666 298.667h106.667v96h-106.667z" fill="#fc5b3f"/><path d="m298.666 298.667h106.667v96h-106.667z" fill="#fc3636" transform="matrix(-1 0 0 -1 704 693.333)"/><path d="m441.666 378.332h-185.666l-21.334 69.668 21.334 64h185.666z" fill="#72bafd"/><path d="m70.333 378.332h185.666v133.667h-185.666z" fill="#9ccefd"/><path d="m256 96-21.333 134.091 21.333 207.242c32.401 0 58.667-26.266 58.667-58.667v-48h85.333v-234.666z" fill="#ffbd86"/><path d="m112 96v234.667h85.333v48c0 32.401 26.266 58.667 58.667 58.667v-341.334z" fill="#fed2a4"/><path d="m385.666 215c-17.22 22.96-44.634 36.667-73.333 36.667h-56.333l-10.667 15 10.667 15h56.334c38.092 0 74.478-18.193 97.333-48.667z" fill="#f7f0eb"/><path d="m225.999 251.667h30v30h-30z" fill="#fffbf5"/><path d="m339.999 0h-84l-10.667 74.667 10.668 92.821c20.423-11.663 35.634-23.32 44.679-30.93 16.535 11.322 50.538 32.057 84.32 37.238v274.204h30v-373c0-41.355-33.644-75-75-75z" fill="#fc3636"/><path d="m171.999 0c-41.355 0-75 33.645-75 75v373h30v-241.435c54.836-3.077 99.731-22.413 128.629-38.863.126-.072.246-.143.371-.215v-167.487z" fill="#fc5b3f"/><path d="m341.333 42.667h-85.333l-8.534 8.667 8.534 21.332h85.333z" fill="#f7f0eb"/><path d="m170.666 42.667h85.334v30h-85.334z" fill="#fffbf5"/></svg>